<?xml version="1.0" encoding="UTF-8"?><svg id="Layer_1" xmlns="http://www.w3.org/2000/svg" width="500" height="150" viewBox="0 0 500 150"><defs><style>.cls-1{fill:#f15a24;}</style></defs><g><path d="m122.95,85.11c0,10.96-8.3,21.79-22.5,21.79h-26.77V35.36h19.53c12.34,0,20.69,8.88,20.69,18.38,0,7.72-5.37,12.87-8.03,12.87,8.03,0,17.09,7.37,17.09,18.51Zm-38.08-38.84v17.84l8.88-.04c5.55.04,9.63-3.77,9.63-8.88s-4.44-8.92-9.5-8.92h-9.01Zm27.12,38.08c0-5.42-4.62-10.39-12.74-10.39l-14.38.04v21.93h14.56c6.44,0,12.56-4.66,12.56-11.58Z"/><path d="m131.21,79.79v-44.43h11.27v44.39c0,9.9,6.97,17.13,15.71,17.13s15.8-7.24,15.8-17.13v-44.39h11.32v44.43c0,16.42-11.85,28.45-27.08,28.45s-27.03-12.03-27.03-28.45Z"/><path d="m243.21,46.5h-19.18v60.41h-11.27v-60.41h-19.18v-11.14h49.63v11.14Z"/><path d="m252.13,35.36h11.23v71.55h-11.23V35.36Z"/><path d="m336.83,97.23c2.88,1.15,6.17,1.91,10.16,2.09l-1.15,10.96c-7.86-.35-13.63-2.93-18.24-6.35-5.1,2.66-10.88,4.13-16.96,4.13-20.33,0-36.93-16.6-36.93-36.84s16.6-37.11,36.98-37.11,37.02,16.69,37.02,37.11c0,10.12-4.17,19.31-10.88,26.01Zm-26.19-.53c2.8,0,5.5-.44,8.03-1.29-5.73-6.48-10.52-12.74-18.6-13.14l.75-9.68c13.85.75,18.64,10.52,26.37,18.06,5.59-4.71,9.14-11.72,9.14-19.53,0-14.16-11.59-25.7-25.7-25.7s-25.61,11.54-25.61,25.7,11.5,25.57,25.61,25.57Z"/><path d="m357.34,79.79v-44.43h11.28v44.39c0,9.9,6.97,17.13,15.71,17.13s15.8-7.24,15.8-17.13v-44.39h11.32v44.43c0,16.42-11.85,28.45-27.08,28.45s-27.03-12.03-27.03-28.45Z"/><path d="m435.73,46.41v18.33h27.08v11.19h-27.08v19.8h31.38v11.19h-42.61V35.36h42.61v11.05h-31.38Z"/></g><g><path class="cls-1" d="m65.56,91.89l-11.56,7.7h11.56v8.05h-30.4v-8.05h11.33l-11.33-7.05v-9.28l14.82,9.32,15.58-10.47v9.79Z"/><path class="cls-1" d="m42.67,75.85h4.24v-9.66h6.73v9.66h4.36v-11.73h7.56v19.71h-30.4v-19.71h7.51v11.73Z"/><path class="cls-1" d="m62.02,44.78v11.35l3.55,1.55v8.83l-30.78-14.13v-3.83l30.78-14.15v8.85l-3.55,1.53Zm-5.9,2.56l-7.2,3.11,7.2,3.13v-6.24Z"/></g></svg>